<svg width="779" height="277" viewBox="0 0 779 277" fill="none" xmlns="http://www.w3.org/2000/svg">
<path d="M10.781 250.004C10.781 251.596 10.847 252.724 10.947 253.454C11.047 254.184 11.246 254.748 11.478 255.179C11.71 255.61 12.075 255.942 12.573 256.24C13.071 256.539 13.833 256.804 14.928 257.102V258.827H0V257.102C1.459 256.737 2.421 256.306 2.919 255.842C3.417 255.378 3.748 254.714 3.881 253.885C4.047 253.023 4.113 251.729 4.113 250.004V219.455C4.113 217.83 4.047 216.636 3.947 215.906C3.814 215.176 3.648 214.579 3.35 214.181C3.085 213.783 2.72 213.451 2.289 213.186C1.858 212.954 1.062 212.655 0 212.357V210.632H14.893V212.357C13.865 212.622 13.102 212.888 12.637 213.12C12.173 213.385 11.808 213.717 11.542 214.082C11.277 214.48 11.078 215.044 10.945 215.84C10.812 216.603 10.746 217.83 10.746 219.456V250.005H10.781V250.004Z" fill="#004D9D"/>
<path d="M57.019 258.827H43.088V257.102C44.017 256.803 44.68 256.571 45.078 256.372C45.476 256.173 45.808 255.874 46.073 255.476C46.338 255.111 46.571 254.514 46.703 253.718C46.869 252.922 46.935 251.728 46.935 250.136V240.882C46.935 239.223 46.902 237.731 46.802 236.404C46.702 235.077 46.537 233.949 46.338 233.087C46.106 232.225 45.84 231.561 45.542 231.064C45.21 230.566 44.845 230.168 44.414 229.837C43.983 229.506 43.485 229.24 42.921 229.041C42.357 228.842 41.627 228.742 40.699 228.742C39.771 228.742 38.908 228.941 38.079 229.306C37.25 229.671 36.354 230.301 35.359 231.197C34.364 232.093 33.667 232.988 33.203 233.851C32.772 234.713 32.54 235.709 32.54 236.869V250.037C32.54 252.06 32.64 253.487 32.839 254.25C33.038 255.046 33.403 255.643 33.9 256.041C34.431 256.439 35.293 256.804 36.487 257.102V258.827H22.622V257.102C23.551 256.803 24.181 256.571 24.579 256.372C24.977 256.173 25.309 255.874 25.574 255.476C25.839 255.111 26.072 254.514 26.204 253.751C26.37 252.988 26.436 251.761 26.436 250.102V234.711C26.436 233.218 26.403 231.991 26.37 231.062C26.337 230.133 26.171 229.404 25.872 228.84C25.573 228.276 25.175 227.878 24.578 227.613C24.014 227.348 23.185 227.115 22.123 226.916V225.059L30.382 224.727H32.538L32.14 230.499L32.638 230.632C34.396 228.874 35.789 227.614 36.851 226.851C37.912 226.088 39.007 225.524 40.102 225.093C41.197 224.695 42.358 224.463 43.585 224.463C44.845 224.463 46.006 224.596 47.002 224.894C47.997 225.193 48.893 225.657 49.656 226.254C50.419 226.851 51.049 227.614 51.547 228.543C52.045 229.439 52.409 230.533 52.675 231.827C52.907 233.087 53.04 234.713 53.04 236.67V250.004C53.04 251.629 53.073 252.823 53.173 253.553C53.273 254.283 53.438 254.847 53.671 255.245C53.903 255.643 54.235 255.975 54.699 256.24C55.13 256.505 55.926 256.804 57.021 257.102V258.827H57.019Z" fill="#004D9D"/>
<path d="M81.134 228.61H72.676V249.971C72.676 251.563 72.742 252.724 72.908 253.553C73.074 254.349 73.273 254.946 73.571 255.377C73.87 255.775 74.268 256.107 74.732 256.372C75.23 256.604 75.992 256.87 77.054 257.102V258.827H62.592V257.102C63.62 256.803 64.383 256.538 64.814 256.306C65.245 256.041 65.61 255.709 65.842 255.311C66.074 254.913 66.273 254.349 66.406 253.586C66.539 252.823 66.572 251.629 66.572 250.004V228.643H62.359V226.852C63.255 226.719 63.852 226.587 64.15 226.52C64.449 226.454 64.714 226.321 65.012 226.155C65.277 225.989 65.51 225.757 65.709 225.458C65.908 225.159 66.074 224.695 66.24 224.098C66.406 223.501 66.505 222.672 66.605 221.577C66.804 219.023 67.268 216.933 67.998 215.308C68.728 213.716 69.756 212.356 71.149 211.195C72.542 210.067 74.002 209.271 75.561 208.807C77.12 208.343 78.978 208.11 81.1 208.11C82.958 208.11 84.55 208.243 85.843 208.508V214.91H82.36C81.929 213.517 81.398 212.522 80.801 211.958C80.204 211.394 79.375 211.096 78.28 211.096C77.517 211.096 76.854 211.196 76.323 211.428C75.792 211.627 75.295 211.959 74.864 212.423C74.433 212.887 74.035 213.484 73.703 214.214C73.371 214.977 73.139 215.906 73.006 217.033C72.84 218.161 72.774 219.62 72.774 221.411V225.126H81.232V228.609H81.134V228.61Z" fill="#004D9D"/>
<path d="M99.377 259.391C94.468 259.391 90.753 257.965 88.166 255.079C85.579 252.193 84.285 247.914 84.285 242.275C84.285 238.394 84.948 235.11 86.308 232.424C87.668 229.737 89.525 227.747 91.881 226.42C94.236 225.126 96.923 224.463 99.941 224.463C104.983 224.463 108.797 225.922 111.385 228.875C113.972 231.794 115.266 236.007 115.266 241.513C115.266 245.427 114.603 248.711 113.309 251.398C112.015 254.085 110.191 256.108 107.803 257.435C105.414 258.728 102.628 259.391 99.377 259.391ZM90.952 241.513C90.952 246.356 91.715 250.104 93.274 252.691C94.8 255.278 97.022 256.605 99.908 256.605C101.5 256.605 102.827 256.207 103.922 255.444C105.017 254.681 105.945 253.653 106.609 252.359C107.306 251.065 107.803 249.573 108.102 247.848C108.401 246.156 108.566 244.365 108.566 242.508C108.566 239.058 108.168 236.173 107.405 233.884C106.642 231.595 105.614 229.937 104.287 228.842C102.96 227.781 101.468 227.25 99.776 227.25C96.923 227.25 94.734 228.477 93.208 230.965C91.715 233.419 90.952 236.935 90.952 241.513Z" fill="#004D9D"/>
<path d="M162.599 232.855C162.599 241.38 160.277 247.914 155.666 252.425C151.055 256.936 144.388 259.192 135.698 259.192H121.402V207.513H137.224C145.251 207.513 151.487 209.735 155.932 214.18C160.377 218.625 162.599 224.861 162.599 232.855ZM156.231 233.054C156.231 226.321 154.539 221.246 151.156 217.829C147.773 214.412 142.764 212.721 136.097 212.721H127.373V253.984H134.67C141.835 253.984 147.208 252.226 150.824 248.71C154.439 245.161 156.231 239.954 156.231 233.054Z" fill="#004D9D"/>
<path d="M189.566 259.889C183.828 259.889 179.317 258.131 176.033 254.648C172.716 251.165 171.058 246.322 171.058 240.12C171.058 233.884 172.584 228.909 175.669 225.26C178.754 221.578 182.867 219.754 188.041 219.754C192.884 219.754 196.732 221.346 199.551 224.53C202.37 227.714 203.797 231.927 203.797 237.168V240.883H177.128C177.261 245.427 178.388 248.877 180.578 251.232C182.767 253.587 185.819 254.781 189.766 254.781C193.945 254.781 198.058 253.919 202.138 252.161V257.402C200.081 258.298 198.091 258.928 196.267 259.326C194.409 259.69 192.187 259.889 189.566 259.889ZM187.974 224.662C184.856 224.662 182.401 225.69 180.544 227.714C178.687 229.737 177.592 232.557 177.293 236.139H197.527C197.527 232.457 196.698 229.605 195.039 227.648C193.414 225.624 191.059 224.662 187.974 224.662Z" fill="#004D9D"/>
<path d="M222.272 259.159L207.578 220.45H213.88L222.206 243.404C224.097 248.778 225.191 252.26 225.523 253.853H225.822C226.087 252.593 226.883 250.005 228.277 246.091C229.67 242.177 232.755 233.619 237.565 220.417H243.867L229.171 259.126H222.272V259.159Z" fill="#004D9D"/>
<path d="M266.421 259.889C260.683 259.889 256.171 258.131 252.888 254.648C249.571 251.165 247.913 246.322 247.913 240.12C247.913 233.884 249.439 228.909 252.524 225.26C255.609 221.578 259.722 219.754 264.896 219.754C269.739 219.754 273.587 221.346 276.406 224.53C279.225 227.714 280.652 231.927 280.652 237.168V240.883H253.983C254.116 245.427 255.243 248.877 257.433 251.232C259.622 253.587 262.674 254.781 266.621 254.781C270.8 254.781 274.913 253.919 278.993 252.161V257.402C276.936 258.298 274.946 258.928 273.122 259.326C271.264 259.69 269.008 259.889 266.421 259.889ZM264.829 224.662C261.711 224.662 259.256 225.69 257.399 227.714C255.542 229.738 254.447 232.557 254.148 236.139H274.382C274.382 232.457 273.553 229.605 271.894 227.648C270.236 225.624 267.88 224.662 264.829 224.662Z" fill="#004D9D"/>
<path d="M296.506 259.159H290.635V204.196H296.506V259.159Z" fill="#004D9D"/>
<path d="M342.347 239.788C342.347 246.09 340.755 251.033 337.571 254.582C334.387 258.131 330.008 259.889 324.403 259.889C320.953 259.889 317.869 259.093 315.182 257.434C312.495 255.809 310.439 253.487 308.979 250.435C307.52 247.383 306.79 243.834 306.79 239.754C306.79 233.452 308.382 228.509 311.533 224.993C314.684 221.477 319.063 219.719 324.668 219.719C330.075 219.719 334.387 221.51 337.571 225.126C340.755 228.742 342.347 233.618 342.347 239.788ZM312.859 239.788C312.859 244.73 313.854 248.512 315.811 251.099C317.801 253.686 320.687 254.98 324.535 254.98C328.383 254.98 331.302 253.686 333.292 251.099C335.282 248.512 336.277 244.73 336.277 239.788C336.277 234.879 335.282 231.131 333.292 228.577C331.302 226.023 328.35 224.729 324.469 224.729C320.621 224.729 317.736 225.989 315.778 228.51C313.821 231.031 312.859 234.779 312.859 239.788Z" fill="#004D9D"/>
<path d="M370.641 259.889C368.12 259.889 365.831 259.425 363.742 258.496C361.652 257.567 359.894 256.141 358.501 254.217H358.07C358.369 256.473 358.501 258.629 358.501 260.652V276.574H352.63V220.451H357.406L358.202 225.758H358.501C359.994 223.635 361.752 222.109 363.775 221.181C365.765 220.252 368.087 219.755 370.674 219.755C375.815 219.755 379.763 221.513 382.549 225.029C385.335 228.545 386.728 233.454 386.728 239.79C386.728 246.159 385.302 251.101 382.482 254.617C379.63 258.131 375.683 259.889 370.641 259.889ZM369.778 224.729C365.831 224.729 362.945 225.824 361.187 228.013C359.429 230.202 358.5 233.685 358.467 238.462V239.756C358.467 245.196 359.363 249.077 361.187 251.432C363.011 253.787 365.897 254.948 369.911 254.948C373.261 254.948 375.882 253.588 377.772 250.868C379.663 248.148 380.625 244.433 380.625 239.657C380.625 234.814 379.663 231.132 377.772 228.545C375.915 226.022 373.228 224.729 369.778 224.729Z" fill="#004D9D"/>
<path d="M413.297 259.889C407.592 259.889 403.047 258.131 399.764 254.648C396.447 251.165 394.789 246.322 394.789 240.12C394.789 233.884 396.315 228.909 399.4 225.26C402.485 221.578 406.598 219.754 411.772 219.754C416.615 219.754 420.462 221.346 423.282 224.53C426.101 227.714 427.528 231.927 427.528 237.168V240.883H400.859C400.992 245.427 402.119 248.877 404.309 251.232C406.499 253.587 409.55 254.781 413.497 254.781C417.676 254.781 421.789 253.919 425.869 252.161V257.402C423.812 258.298 421.822 258.928 419.998 259.326C418.14 259.69 415.918 259.889 413.297 259.889ZM411.738 224.662C408.62 224.662 406.165 225.69 404.308 227.714C402.451 229.738 401.356 232.557 401.024 236.139H421.258C421.258 232.457 420.429 229.605 418.77 227.648C417.145 225.624 414.79 224.662 411.738 224.662Z" fill="#004D9D"/>
<path d="M455.191 219.753C456.916 219.753 458.442 219.886 459.802 220.184L459.006 225.624C457.414 225.259 455.988 225.093 454.76 225.093C451.642 225.093 448.955 226.353 446.733 228.908C444.511 231.462 443.383 234.613 443.383 238.428V259.192H437.512V220.45H442.355L443.018 227.615H443.317C444.743 225.094 446.468 223.137 448.525 221.777C450.547 220.417 452.769 219.753 455.191 219.753Z" fill="#004D9D"/>
<path d="M492.043 248.611C492.043 252.227 490.716 254.98 488.029 256.937C485.342 258.894 481.561 259.856 476.718 259.856C471.577 259.856 467.596 259.06 464.71 257.401V251.961C466.568 252.89 468.558 253.653 470.714 254.183C472.837 254.714 474.893 254.979 476.884 254.979C479.936 254.979 482.291 254.481 483.949 253.519C485.608 252.557 486.437 251.064 486.437 249.041C486.437 247.548 485.774 246.255 484.48 245.16C483.186 244.099 480.632 242.838 476.818 241.345C473.202 240.018 470.648 238.824 469.123 237.829C467.597 236.834 466.469 235.706 465.74 234.412C465.01 233.152 464.612 231.626 464.612 229.868C464.612 226.717 465.906 224.229 468.46 222.405C471.014 220.581 474.563 219.652 479.008 219.652C483.187 219.652 487.234 220.514 491.215 222.206L489.125 226.982C485.244 225.39 481.728 224.594 478.577 224.594C475.791 224.594 473.701 225.025 472.275 225.888C470.849 226.75 470.152 227.978 470.152 229.504C470.152 230.532 470.417 231.428 470.948 232.158C471.479 232.888 472.341 233.584 473.502 234.248C474.663 234.912 476.952 235.873 480.269 237.101C484.846 238.76 487.964 240.451 489.59 242.143C491.247 243.901 492.043 246.057 492.043 248.611Z" fill="#004D9D"/>
<path d="M554.004 222.573C554.004 227.814 552.213 231.827 548.664 234.647C545.082 237.466 540.007 238.86 533.339 238.86H527.269V259.16H521.265V207.514H534.666C547.536 207.513 554.004 212.522 554.004 222.573ZM527.269 233.684H532.676C537.983 233.684 541.864 232.822 544.219 231.097C546.607 229.372 547.801 226.619 547.801 222.838C547.801 219.421 546.673 216.867 544.451 215.209C542.229 213.55 538.713 212.688 534.002 212.688H527.302V233.685H527.269V233.684Z" fill="#004D9D"/>
<path d="M572.413 259.159L557.719 220.45H564.021L572.347 243.404C574.238 248.778 575.332 252.26 575.664 253.853H575.963C576.228 252.593 577.024 250.005 578.418 246.091C579.812 242.177 582.896 233.619 587.706 220.417H594.008L579.314 259.126H572.415V259.159H572.413Z" fill="#004D9D"/>
<path d="M612.682 255.046C613.71 255.046 614.705 254.98 615.7 254.814C616.662 254.648 617.425 254.515 617.989 254.35V258.828C617.359 259.127 616.43 259.392 615.17 259.591C613.943 259.79 612.815 259.89 611.82 259.89C604.324 259.89 600.575 255.943 600.575 248.048V224.995H595.036V222.176L600.575 219.721L603.063 211.462H606.446V220.451H617.691V224.995H606.446V247.783C606.446 250.105 607.01 251.896 608.105 253.157C609.232 254.416 610.758 255.046 612.682 255.046Z" fill="#004D9D"/>
<path d="M624.855 255.444C624.855 253.852 625.22 252.658 625.916 251.862C626.646 251.033 627.674 250.635 629.001 250.635C630.361 250.635 631.422 251.033 632.185 251.862C632.948 252.658 633.346 253.885 633.346 255.444C633.346 256.97 632.948 258.164 632.185 258.993C631.422 259.822 630.361 260.22 629.001 260.22C627.807 260.22 626.812 259.855 626.016 259.092C625.253 258.33 624.855 257.136 624.855 255.444Z" fill="#004D9D"/>
<path d="M664.626 259.159V207.513H670.63V253.719H693.418V259.159H664.626Z" fill="#004D9D"/>
<path d="M713.817 255.046C714.845 255.046 715.84 254.98 716.835 254.814C717.797 254.648 718.56 254.515 719.124 254.35V258.828C718.494 259.127 717.565 259.392 716.305 259.591C715.078 259.79 713.95 259.89 712.955 259.89C705.459 259.89 701.71 255.943 701.71 248.048V224.995H696.171V222.176L701.71 219.721L704.198 211.462H707.581V220.451H718.826V224.995H707.581V247.783C707.581 250.105 708.145 251.896 709.24 253.157C710.367 254.416 711.86 255.046 713.817 255.046Z" fill="#004D9D"/>
<path d="M753.189 253.984H752.857C750.137 257.931 746.09 259.888 740.717 259.888C735.642 259.888 731.728 258.163 728.908 254.68C726.089 251.23 724.695 246.288 724.695 239.919C724.695 233.55 726.121 228.575 728.941 225.059C731.76 221.51 735.708 219.752 740.75 219.752C745.991 219.752 750.038 221.676 752.824 225.49H753.288L753.056 222.704L752.923 219.984V204.228H758.794V259.191H753.951L753.189 253.984ZM741.447 254.98C745.461 254.98 748.346 253.885 750.171 251.696C751.962 249.507 752.858 245.991 752.858 241.148V239.921C752.858 234.448 751.929 230.501 750.105 228.179C748.281 225.824 745.362 224.663 741.348 224.663C737.898 224.663 735.278 225.99 733.454 228.677C731.63 231.364 730.701 235.112 730.701 239.988C730.701 244.93 731.597 248.679 733.421 251.199C735.277 253.719 737.964 254.98 741.447 254.98Z" fill="#004D9D"/>
<path d="M770.305 255.444C770.305 253.852 770.67 252.658 771.366 251.862C772.096 251.033 773.124 250.635 774.451 250.635C775.811 250.635 776.872 251.033 777.635 251.862C778.398 252.658 778.796 253.885 778.796 255.444C778.796 256.97 778.398 258.164 777.635 258.993C776.872 259.822 775.811 260.22 774.451 260.22C773.257 260.22 772.262 259.855 771.466 259.092C770.703 258.33 770.305 257.136 770.305 255.444Z" fill="#004D9D"/>
<path d="M626.215 194.644C626.215 193.914 626.215 193.417 626.215 192.952C626.215 131.355 626.215 69.7922 626.182 8.19621C626.182 5.14421 627.144 2.72321 629.764 1.09821C632.849 -0.792792 636.796 -0.228789 639.317 2.69021C641.971 5.77521 644.525 8.95921 646.78 12.3092C650.097 17.1852 653.082 22.2602 656.233 27.2692C661.607 35.7602 667.013 44.2852 672.387 52.7772C679.85 64.5852 687.247 76.3942 694.743 88.2022C702.007 99.6462 709.305 111.023 716.602 122.466C721.213 129.697 725.79 136.994 730.368 144.259C733.585 149.367 736.803 154.442 738.428 160.38C740.783 168.971 739.191 177.031 734.547 184.329C730.301 191.029 723.767 194.579 715.839 194.645C686.45 194.778 657.062 194.711 627.673 194.711C627.243 194.644 626.812 194.644 626.215 194.644ZM706.652 148.902C706.652 129.995 691.129 114.505 672.222 114.505C653.315 114.505 637.825 130.028 637.825 148.935C637.825 167.842 653.348 183.332 672.255 183.332C691.162 183.332 706.685 167.809 706.652 148.902Z" fill="#004D9D"/>
<path d="M613.643 194.544C612.946 194.544 612.416 194.544 611.885 194.544C591.419 194.544 570.987 194.843 550.521 194.444C535.031 194.145 527.965 178.29 533.505 167.842C536.059 162.999 539.011 158.389 541.897 153.745C547.37 144.922 552.909 136.132 558.416 127.342C562.131 121.405 565.879 115.467 569.594 109.53C575.133 100.707 580.673 91.8502 586.212 83.0272C590.69 75.8952 595.201 68.7642 599.712 61.6662C601.105 59.4772 602.531 57.3212 604.09 55.2642C605.649 53.2412 607.772 52.6772 609.961 53.4062C611.951 54.0692 613.543 56.3582 613.643 58.6472C613.643 58.9122 613.643 59.1782 613.643 59.4432C613.643 103.891 613.643 148.338 613.643 192.819C613.643 193.317 613.643 193.814 613.643 194.544Z" fill="#0091D5"/>
<path d="M602.2 47.5682C595.234 47.5352 589.695 41.9292 589.728 34.8972C589.728 27.8982 595.334 22.3592 602.366 22.3592C609.431 22.3592 614.937 27.9652 614.937 35.1292C614.904 42.0952 609.265 47.6012 602.2 47.5682Z" fill="#004D9D"/>
</svg>
